<?xml version="1.0" encoding="UTF-8" standalone="no"?>
<svg
   xmlns:dc="http://purl.org/dc/elements/1.1/"
   xmlns:cc="http://creativecommons.org/ns#"
   xmlns:rdf="http://www.w3.org/1999/02/22-rdf-syntax-ns#"
   xmlns:svg="http://www.w3.org/2000/svg"
   xmlns="http://www.w3.org/2000/svg"
   xmlns:sodipodi="http://sodipodi.sourceforge.net/DTD/sodipodi-0.dtd"
   xmlns:inkscape="http://www.inkscape.org/namespaces/inkscape"
   width="250"
   height="250"
   viewBox="0 0 66.145832 66.145835"
   version="1.1"
   id="svg8"
   inkscape:export-filename="/home/danilo/bitmap.png"
   inkscape:export-xdpi="96"
   inkscape:export-ydpi="96"
   inkscape:version="1.0.2 (e86c870879, 2021-01-15)"
   sodipodi:docname="favicon.svg">
  <defs
     id="defs2">
    <rect
       x="-43.964817"
       y="43.052124"
       width="23.631041"
       height="13.232123"
       id="rect1058" />
    <rect
       x="-94.605793"
       y="14.654511"
       width="61.889598"
       height="18.170308"
       id="rect978" />
    <rect
       x="-64.528364"
       y="3.7694399"
       width="23.318222"
       height="19.509631"
       id="rect31" />
  </defs>
  <sodipodi:namedview
     id="base"
     pagecolor="#ffffff"
     bordercolor="#666666"
     borderopacity="1.0"
     inkscape:pageopacity="0.0"
     inkscape:pageshadow="2"
     inkscape:zoom="1.608"
     inkscape:cx="141.8227"
     inkscape:cy="121.62361"
     inkscape:document-units="mm"
     inkscape:current-layer="layer1"
     inkscape:document-rotation="0"
     showgrid="false"
     units="px"
     inkscape:window-width="1920"
     inkscape:window-height="995"
     inkscape:window-x="0"
     inkscape:window-y="0"
     inkscape:window-maximized="1" />
  <metadata
     id="metadata5">
    <rdf:RDF>
      <cc:Work
         rdf:about="">
        <dc:format>image/svg+xml</dc:format>
        <dc:type
           rdf:resource="http://purl.org/dc/dcmitype/StillImage" />
        <dc:title></dc:title>
      </cc:Work>
    </rdf:RDF>
  </metadata>
  <g
     inkscape:label="Layer 1"
     inkscape:groupmode="layer"
     id="layer1"
     style="display:inline">
    <rect
       style="fill:#aaffcc;stroke:#008033;stroke-width:3.88453;stroke-linecap:round;stroke-miterlimit:0.8;paint-order:fill markers stroke"
       id="rect17"
       width="61.994461"
       height="61.754993"
       x="2.4088895"
       y="1.7266247"
       ry="15.446488" />
    <ellipse
       style="fill:#aaffcc;stroke:#008033;stroke-width:2.71694;stroke-linecap:round;stroke-linejoin:miter;stroke-miterlimit:0.8;stroke-dasharray:none;stroke-dashoffset:0;paint-order:fill markers stroke"
       id="path95"
       cy="32.847633"
       cx="33.40612"
       rx="31.582155"
       ry="31.460161" />
    <text
       xml:space="preserve"
       id="text29"
       style="font-size:10.5833px;line-height:1.25;font-family:'Noto Serif CJK SC';-inkscape-font-specification:'Noto Serif CJK SC';white-space:pre;shape-inside:url(#rect31);" />
    <rect
       style="fill:#333333;stroke:#333333;stroke-width:0.939926;stroke-linecap:round;stroke-linejoin:round;stroke-miterlimit:0.8;stroke-dasharray:none;paint-order:stroke fill markers"
       id="rect936"
       width="40.601154"
       height="2.934201"
       x="13.105543"
       y="33.687904"
       rx="0"
       ry="0.84839249" />
    <a
       id="a943"
       transform="matrix(1.0000948,0,0,0.99539275,0.81360362,-0.32550154)">
      <rect
         style="fill:none;stroke:#333333;stroke-width:1.47044;stroke-linecap:round;stroke-linejoin:round;stroke-miterlimit:0.8;stroke-dasharray:none;paint-order:stroke fill markers"
         id="rect109"
         width="40.069145"
         height="23.420364"
         x="12.554854"
         y="13.040982"
         ry="2.2004981"
         rx="20.035" />
    </a>
    <rect
       style="fill:#333333;stroke:#333333;stroke-width:0.840481;stroke-linecap:round;stroke-linejoin:round;stroke-miterlimit:0.8;stroke-dasharray:none;paint-order:markers fill stroke"
       id="rect948"
       width="12.388115"
       height="1.8771313"
       x="27.212063"
       y="42.142666"
       ry="0" />
    <rect
       style="fill:#333333;stroke:#333333;stroke-width:1.2559;stroke-linecap:round;stroke-linejoin:round;stroke-miterlimit:0.8;stroke-dasharray:none;paint-order:markers fill stroke"
       id="rect966"
       width="2.9899282"
       height="4.0181818"
       x="31.911156"
       y="37.339977" />
  </g>
  <text
     xml:space="preserve"
     id="text976"
     style="line-height:1.25;font-family:'Noto Serif CJK SC';font-size:10.58333333px;-inkscape-font-specification:'Noto Serif CJK SC';white-space:pre;shape-inside:url(#rect978);" />
  <text
     xml:space="preserve"
     style="font-size:14.7768px;line-height:1.25;font-family:'Noto Serif CJK SC';-inkscape-font-specification:'Noto Serif CJK SC';fill:#333333;stroke-width:0.369418"
     x="12.590607"
     y="56.812229"
     id="text984"
     transform="scale(1.0700102,0.93457054)"><tspan
       sodipodi:role="line"
       id="tspan982"
       x="12.590607"
       y="56.812229"
       style="font-style:normal;font-variant:normal;font-weight:normal;font-stretch:normal;font-family:Gurajada;-inkscape-font-specification:Gurajada;fill:#333333;stroke-width:0.369418">Deskae</tspan></text>
  <text
     xml:space="preserve"
     id="text1056"
     style="font-size:10.5833px;line-height:1.25;font-family:'Noto Serif CJK SC';-inkscape-font-specification:'Noto Serif CJK SC';white-space:pre;shape-inside:url(#rect1058);fill:#333333;"
     transform="matrix(1.4203585,0,0,1.3648003,91.784869,-11.4886)"><tspan
       x="-43.964844"
       y="53.688951"><tspan
         style="font-style:normal;font-variant:normal;font-weight:normal;font-stretch:normal;font-family:Gurajada;-inkscape-font-specification:Gurajada;fill:#333333">X</tspan></tspan></text>
  <path
     style="fill:#333333;stroke-width:0.0588208"
     d="m 24.920028,32.415997 c -0.408339,-0.0962 -0.74549,-0.28744 -0.915377,-0.51916 -0.144156,-0.19663 -0.152137,-0.28179 -0.15131,-1.61445 8.2e-4,-1.38063 0.004,-1.41047 0.167638,-1.5994 l 0.166766,-0.19252 -0.167639,-0.20933 c -0.145461,-0.18163 -0.167638,-0.27788 -0.167638,-0.72757 v -0.51825 l -2.298282,-9e-4 c -1.264054,-5.4e-4 -2.521651,-0.0223 -2.794656,-0.0483 -1.432127,-0.13671 -2.727643,-0.74627 -3.365998,-1.58377 -0.677207,-0.88846 -0.677609,-1.75995 -0.0014,-2.66592 0.445071,-0.59615 1.097417,-1.01069 2.101121,-1.33517 0.476309,-0.15399 0.791619,-0.28638 0.841095,-0.35317 0.04353,-0.0588 0.207527,-0.29221 0.364446,-0.51879 1.125793,-1.62556 3.365779,-2.60711 6.159185,-2.69893 0.462106,-0.0152 0.929417,-0.0499 1.038472,-0.0771 0.142676,-0.0356 0.325375,-0.19042 0.651481,-0.55207 1.487362,-1.64948 3.762397,-2.72872 6.589166,-3.12579 1.058526,-0.14869 2.8246,-0.14936 3.867056,-10e-4 2.956726,0.41949 5.136189,1.47082 6.784831,3.27287 0.220835,0.24138 0.514608,0.3199 1.200277,0.3208 1.673984,0.002 3.385094,0.45983 4.660907,1.24656 0.726283,0.44786 1.152257,0.82874 1.572157,1.40573 1.94836,2.67727 -0.306167,5.77949 -4.76525,6.55696 -0.651025,0.11351 -0.860049,0.12526 -2.607907,0.14657 l -1.900154,0.0232 -8.21e-4,0.50822 c -8.21e-4,0.45087 -0.02085,0.53128 -0.177887,0.71265 l -0.177014,0.20444 0.177887,0.2209 c 0.239264,0.29713 0.257898,0.8708 0.03311,1.01923 -0.17963,0.11861 -0.511344,0.12324 -0.722956,0.0101 -0.126893,-0.0679 -0.168003,-0.15213 -0.19914,-0.40826 -0.03096,-0.25466 -0.07104,-0.33748 -0.189965,-0.39248 -0.129777,-0.06 -1.218638,-0.0697 -7.832606,-0.0697 h -7.681871 l -0.137897,0.10051 c -0.125746,0.0917 -0.139869,0.19798 -0.160273,1.20687 -0.02451,1.21166 -0.0019,1.37716 0.207382,1.51532 0.135128,0.0892 0.267739,0.0929 3.329047,0.0929 h 3.188311 l 0.177676,0.11732 c 0.226446,0.14953 0.226446,0.3328 0,0.48232 l -0.177676,0.11732 -3.206408,-0.002 c -2.488724,-0.002 -3.2672,-0.0164 -3.478005,-0.0661 z m 15.784926,-4.3788 c 0.155311,-0.0955 0.158421,-0.12245 0.158421,-1.3704 0,-1.11742 -0.01464,-1.28363 -0.119798,-1.36036 -0.114634,-0.0836 -0.452813,-0.0874 -7.842753,-0.0874 h -7.722953 l -0.137897,0.10051 c -0.125746,0.0917 -0.139869,0.19798 -0.160273,1.20687 -0.02451,1.21166 -0.0019,1.37716 0.207382,1.51532 0.137615,0.0909 0.310495,0.0929 7.800092,0.0929 7.608077,0 7.660417,-7.2e-4 7.817779,-0.0974 z m -14.125062,-1.0993 c -0.242139,-0.12577 -0.266034,-0.38071 -0.04911,-0.52394 0.139634,-0.0922 0.241291,-0.0956 2.862571,-0.0956 h 2.717797 l 0.177676,0.11732 c 0.213112,0.14072 0.227459,0.30945 0.03936,0.4629 l -0.138318,0.11284 -2.708046,0.0136 c -2.659916,0.0134 -2.711493,0.0118 -2.901929,-0.0871 z m 7.864306,0.0406 c -0.348089,-0.11112 -0.367689,-0.49062 -0.03147,-0.60943 0.183547,-0.0649 1.421454,-0.0663 1.603833,-0.002 0.355364,0.12558 0.352125,0.47508 -0.0055,0.5972 -0.24331,0.0831 -1.320333,0.0927 -1.566828,0.014 z m 3.070873,-0.0381 c -0.246905,-0.12824 -0.272858,-0.38182 -0.05388,-0.52641 0.126077,-0.0833 0.241288,-0.0956 0.892217,-0.0956 0.687699,0 0.760025,0.009 0.904835,0.11063 0.194223,0.13651 0.201716,0.32058 0.01912,0.46959 -0.125419,0.10235 -0.204535,0.11434 -0.85096,0.12891 -0.641455,0.0144 -0.732543,0.006 -0.911339,-0.0871 z m -13.662603,-1.19571 c 0.02907,-0.4416 0.06575,-0.58279 0.186398,-0.71746 l 0.150205,-0.16766 -0.168303,-0.21015 c -0.165102,-0.20616 -0.1683,-0.23683 -0.1683,-1.61455 0,-1.54768 0.01163,-1.59321 0.481983,-1.88798 0.466497,-0.29235 0.0037,-0.27737 8.566373,-0.27737 8.562459,0 8.096547,-0.0151 8.568872,0.27737 0.454192,0.28122 0.476229,0.36888 0.47702,1.8974 8.21e-4,1.37413 -8.21e-4,1.38784 -0.172194,1.58578 l -0.17291,0.19967 0.173783,0.22666 c 0.151628,0.19776 0.173783,0.29266 0.173783,0.74433 v 0.51766 h 1.514887 c 0.833185,0 1.769691,-0.0229 2.081122,-0.0508 3.131415,-0.28119 5.483156,-2.13623 5.285738,-4.16936 -0.142994,-1.4726 -1.431224,-2.72123 -3.459158,-3.35283 -0.757849,-0.23603 -1.26851,-0.31443 -2.346149,-0.36021 -1.417957,-0.0602 -1.631769,-0.14566 -2.457502,-0.98189 -2.193779,-2.22164 -6.004199,-3.20264 -9.8204,-2.52828 -1.371459,0.24234 -2.644694,0.7279 -3.746291,1.42867 -0.728389,0.46336 -1.083053,0.76567 -1.667478,1.42135 -0.56195,0.63046 -1.013808,0.80246 -2.108152,0.80246 -1.632998,0 -3.149072,0.39062 -4.266699,1.09933 -0.557124,0.35329 -1.151901,0.92657 -1.378233,1.32842 -0.338562,0.60112 -0.668944,0.83002 -1.521831,1.05438 -1.147195,0.30179 -1.980679,1.06313 -2.076601,1.89687 -0.07567,0.65766 0.243162,1.20619 0.988233,1.70021 0.26205,0.17376 0.652214,0.37473 0.867033,0.44661 0.699494,0.23405 1.060802,0.25893 3.626005,0.24969 l 2.352573,-0.008 z m 16.744217,-1.29754 c 0.08696,-0.0302 0.182042,-0.0786 0.211292,-0.10754 0.02925,-0.0289 0.05368,-0.62088 0.05429,-1.31546 0.0011,-1.10869 -0.01351,-1.27353 -0.11869,-1.35027 -0.114634,-0.0836 -0.452813,-0.0874 -7.842753,-0.0874 h -7.722953 l -0.137897,0.10051 c -0.125919,0.0918 -0.139894,0.19869 -0.160886,1.23077 -0.02479,1.21918 0.02252,1.46265 0.298493,1.53605 0.251643,0.0669 15.225994,0.0605 15.419104,-0.007 z m -13.848744,-1.07829 c -0.372564,-0.0905 -0.48975,-0.40746 -0.217161,-0.58746 0.139686,-0.0922 0.241291,-0.0956 2.89022,-0.0956 h 2.745448 l 0.150028,0.12594 c 0.244016,0.20484 0.187717,0.40759 -0.144698,0.52109 -0.16905,0.0577 -0.650781,0.0693 -2.760025,0.0662 -1.405376,-0.002 -2.604091,-0.0157 -2.663812,-0.0301 z m 7.699362,-0.022 c -0.158591,-0.0507 -0.315904,-0.22738 -0.315904,-0.35479 0,-0.0394 0.07996,-0.12441 0.177679,-0.18894 0.166021,-0.10962 0.227395,-0.11732 0.935775,-0.11732 0.732767,0 0.763111,0.004 0.908124,0.12594 0.08252,0.0693 0.150027,0.15429 0.150027,0.18894 0,0.12638 -0.165031,0.29723 -0.337129,0.34901 -0.219505,0.066 -1.309521,0.064 -1.518572,-0.003 z m 3.067768,-0.039 c -0.246905,-0.12824 -0.272858,-0.38182 -0.05388,-0.52642 0.126077,-0.0832 0.241288,-0.0956 0.892217,-0.0956 0.687699,0 0.760025,0.009 0.904835,0.11063 0.194223,0.13651 0.201716,0.32058 0.01912,0.46959 -0.125419,0.10235 -0.204535,0.11433 -0.85096,0.1289 -0.641455,0.0145 -0.732543,0.006 -0.911339,-0.0871 z m -3.795165,9.12919 c -0.339744,-0.0924 -0.407934,-0.372 -0.134698,-0.55242 l 0.177676,-0.11732 h 3.391639 c 2.759573,0 3.416942,-0.0122 3.527428,-0.0656 0.09826,-0.0474 0.149737,-0.1545 0.186234,-0.38734 0.03605,-0.22994 0.09306,-0.34991 0.19976,-0.42037 0.187939,-0.1241 0.541089,-0.12772 0.742089,-0.008 0.13655,0.0816 0.149724,0.13337 0.12761,0.5015 -0.02109,0.3513 -0.05314,0.4389 -0.222102,0.60739 -0.108592,0.10829 -0.352898,0.25723 -0.5429,0.33097 l -0.34546,0.13409 -3.474568,0.01 c -1.930621,0.005 -3.544837,-0.009 -3.632708,-0.0331 z m -7.140014,-1.8665 c -0.249556,-0.12962 -0.266557,-0.37992 -0.03546,-0.52208 0.153571,-0.0945 0.241261,-0.0974 2.862572,-0.0974 h 2.704147 l 0.177676,0.11732 c 0.213112,0.14071 0.227459,0.30945 0.03936,0.4629 l -0.138318,0.11284 -2.708046,0.0136 c -2.659916,0.0134 -2.711493,0.0118 -2.901929,-0.0871 z m 7.864306,0.0428 c -0.348253,-0.11611 -0.36764,-0.49287 -0.03147,-0.61167 0.07891,-0.0279 0.456556,-0.0507 0.839204,-0.0507 0.650382,0 0.70783,0.008 0.88149,0.12266 0.150408,0.0993 0.177028,0.1515 0.139866,0.27419 -0.07857,0.25939 -0.190972,0.29506 -0.968036,0.30715 -0.402777,0.006 -0.770731,-0.0115 -0.86105,-0.0416 z m 3.062952,-0.0445 c -0.238987,-0.12413 -0.261498,-0.37997 -0.04595,-0.5223 0.126077,-0.0832 0.241288,-0.0956 0.892217,-0.0956 0.687699,0 0.760025,0.009 0.904835,0.11062 0.208783,0.14675 0.200636,0.34314 -0.0203,0.48901 -0.163469,0.10794 -0.232143,0.11732 -0.858881,0.11732 -0.579547,0 -0.709663,-0.0148 -0.871931,-0.0991 z"
     id="path1160" />
</svg>
