<?xml version="1.0" encoding="UTF-8" standalone="no"?>
<svg
   width="612"
   height="612"
   viewBox="0 0 161.925 161.925"
   version="1.1"
   id="svg8"
   inkscape:export-filename="/home/danilo/bitmap.png"
   inkscape:export-xdpi="96"
   inkscape:export-ydpi="96"
   inkscape:version="1.1 (1:1.1+202105261517+ce6663b3b7)"
   sodipodi:docname="favicon.svg"
   xmlns:inkscape="http://www.inkscape.org/namespaces/inkscape"
   xmlns:sodipodi="http://sodipodi.sourceforge.net/DTD/sodipodi-0.dtd"
   xmlns="http://www.w3.org/2000/svg"
   xmlns:svg="http://www.w3.org/2000/svg"
   xmlns:rdf="http://www.w3.org/1999/02/22-rdf-syntax-ns#"
   xmlns:cc="http://creativecommons.org/ns#"
   xmlns:dc="http://purl.org/dc/elements/1.1/">
  <defs
     id="defs2">
    <rect
       x="-43.964817"
       y="43.052124"
       width="23.631041"
       height="13.232123"
       id="rect1058" />
    <rect
       x="-94.605797"
       y="14.654511"
       width="61.889599"
       height="18.170307"
       id="rect978" />
    <rect
       x="-64.528366"
       y="3.7694399"
       width="23.318222"
       height="19.50963"
       id="rect31" />
  </defs>
  <sodipodi:namedview
     id="base"
     pagecolor="#ffffff"
     bordercolor="#666666"
     borderopacity="1.0"
     inkscape:pageopacity="0.0"
     inkscape:pageshadow="2"
     inkscape:zoom="0.804"
     inkscape:cx="188.43284"
     inkscape:cy="256.8408"
     inkscape:document-units="mm"
     inkscape:current-layer="svg8"
     inkscape:document-rotation="0"
     showgrid="false"
     units="px"
     inkscape:window-width="1920"
     inkscape:window-height="999"
     inkscape:window-x="0"
     inkscape:window-y="0"
     inkscape:window-maximized="1"
     inkscape:pagecheckerboard="0" />
  <metadata
     id="metadata5">
    <rdf:RDF>
      <cc:Work
         rdf:about="">
        <dc:format>image/svg+xml</dc:format>
        <dc:type
           rdf:resource="http://purl.org/dc/dcmitype/StillImage" />
      </cc:Work>
    </rdf:RDF>
  </metadata>
  <g
     inkscape:label="Layer 1"
     inkscape:groupmode="layer"
     id="layer1"
     style="display:inline">
    <rect
       style="fill:#aaffcc;stroke:#008033;stroke-width:9.49019;stroke-linecap:round;stroke-miterlimit:0.8;paint-order:fill markers stroke"
       id="rect17"
       width="150.84778"
       height="151.48117"
       x="5.8215981"
       y="5.2114458"
       ry="37.889275" />
    <ellipse
       style="fill:#aaffcc;stroke:#008033;stroke-width:6.63769;stroke-linecap:round;stroke-linejoin:miter;stroke-miterlimit:0.8;stroke-dasharray:none;stroke-dashoffset:0;paint-order:fill markers stroke"
       id="path95"
       cy="81.549355"
       cx="81.245491"
       rx="76.84716"
       ry="77.169823" />
    <text
       xml:space="preserve"
       id="text29"
       style="font-size:10.5833px;line-height:1.25;font-family:'Noto Serif CJK SC';-inkscape-font-specification:'Noto Serif CJK SC';white-space:pre;shape-inside:url(#rect31)" />
    <rect
       style="fill:#333333;stroke:#333333;stroke-width:2.11502;stroke-linecap:round;stroke-linejoin:round;stroke-miterlimit:0.8;stroke-dasharray:none;paint-order:stroke fill markers"
       id="rect936"
       width="90.101913"
       height="6.6947813"
       x="36.19453"
       y="74.280792"
       rx="0"
       ry="1.9357235" />
    <a
       id="a943"
       transform="matrix(2.2194061,0,0,2.271125,8.916314,-3.3254593)">
      <rect
         style="fill:none;stroke:#333333;stroke-width:1.47044;stroke-linecap:round;stroke-linejoin:round;stroke-miterlimit:0.8;stroke-dasharray:none;paint-order:stroke fill markers"
         id="rect109"
         width="40.069145"
         height="23.420364"
         x="12.554854"
         y="13.040982"
         ry="2.2004981"
         rx="20.035" />
    </a>
    <rect
       style="fill:#333333;stroke:#333333;stroke-width:1.89125;stroke-linecap:round;stroke-linejoin:round;stroke-miterlimit:0.8;stroke-dasharray:none;paint-order:markers fill stroke"
       id="rect948"
       width="27.491652"
       height="4.2829328"
       x="67.499664"
       y="93.57148"
       ry="0" />
    <rect
       style="fill:#333333;stroke:#333333;stroke-width:2.82602;stroke-linecap:round;stroke-linejoin:round;stroke-miterlimit:0.8;stroke-dasharray:none;paint-order:markers fill stroke"
       id="rect966"
       width="6.6352358"
       height="9.1680326"
       x="77.927872"
       y="82.613503" />
  </g>
  <text
     xml:space="preserve"
     id="text976"
     style="font-size:10.5833px;line-height:1.25;font-family:'Noto Serif CJK SC';-inkscape-font-specification:'Noto Serif CJK SC';white-space:pre;shape-inside:url(#rect978)" />
  <text
     xml:space="preserve"
     style="font-size:32.149px;line-height:1.25;font-family:'Noto Serif CJK SC';-inkscape-font-specification:'Noto Serif CJK SC';fill:#333333;stroke-width:0.803722"
     x="17.626493"
     y="129.37532"
     id="text984"
     transform="scale(1.0448675,0.95705914)"><tspan
       sodipodi:role="line"
       id="tspan982"
       x="17.626493"
       y="129.37532"
       style="font-style:normal;font-variant:normal;font-weight:normal;font-stretch:normal;font-family:Gurajada;-inkscape-font-specification:Gurajada;fill:#333333;stroke-width:0.803722">Deskae</tspan></text>
  <text
     xml:space="preserve"
     id="text1056"
     style="font-size:10.5833px;line-height:1.25;font-family:'Noto Serif CJK SC';-inkscape-font-specification:'Noto Serif CJK SC';white-space:pre;shape-inside:url(#rect1058);fill:#333333"
     transform="matrix(3.6056453,0,0,3.086413,226.72428,-12.755002)"><tspan
       x="-43.964844"
       y="53.688951"
       id="tspan52"><tspan
         style="font-family:Gurajada;-inkscape-font-specification:Gurajada"
         id="tspan50">X</tspan></tspan></text>
  <path
     style="fill:#333333;stroke-width:0.132359"
     d="m 62.41257,71.378756 c -0.906201,-0.219493 -1.654405,-0.655844 -2.031424,-1.184522 -0.319886,-0.448645 -0.337602,-0.642956 -0.335784,-3.683604 0.002,-3.150092 0.009,-3.218168 0.372035,-3.649246 l 0.370088,-0.439256 -0.372025,-0.47763 c -0.322812,-0.41441 -0.372016,-0.634016 -0.372016,-1.660042 v -1.182458 l -5.100334,-0.0022 c -2.80518,-0.0022 -5.59604,-0.05093 -6.2019,-0.11015 -3.17815,-0.311933 -6.05316,-1.702712 -7.46979,-3.613588 -1.50287,-2.02714 -1.50376,-4.01557 -0.002,-6.082664 0.9877,-1.360202 2.43537,-2.306016 4.6628,-3.046369 1.05701,-0.351349 1.75675,-0.65341 1.86653,-0.805804 0.0966,-0.134155 0.46057,-0.666714 0.80879,-1.183692 2.49835,-3.708934 7.46933,-5.948495 13.668425,-6.157975 1.025519,-0.0347 2.062571,-0.11385 2.304563,-0.17592 0.31663,-0.0812 0.72209,-0.43446 1.445788,-1.25962 3.300741,-3.76352 8.34948,-6.22595 14.622648,-7.13191 2.349082,-0.33926 6.268324,-0.34079 8.581755,-0.002 6.561536,0.9571 11.398211,3.35586 15.056871,7.46748 0.49005,0.55076 1.14201,0.7299 2.66364,0.73195 3.7149,0.004 7.51218,1.04918 10.34346,2.844203 1.61178,1.021855 2.55709,1.890889 3.48892,3.207379 4.32381,6.108553 -0.67944,13.1867 -10.57502,14.960595 -1.44476,0.258988 -1.90861,0.285797 -5.78745,0.334422 l -4.2168,0.05294 -0.002,1.159576 c -0.002,1.028718 -0.0461,1.212171 -0.394766,1.625998 l -0.392827,0.466469 0.394764,0.504 c 0.530979,0.677942 0.572329,1.986849 0.0735,2.325511 -0.398629,0.270643 -1.13476,0.281198 -1.604362,0.023 -0.281618,-0.154906 -0.372845,-0.347098 -0.441941,-0.931501 -0.06881,-0.581039 -0.157556,-0.769999 -0.421568,-0.895484 -0.287989,-0.136914 -2.7044,-0.159045 -17.382063,-0.159045 H 62.985499 l -0.306034,0.229342 c -0.279072,0.209219 -0.310399,0.451718 -0.355668,2.75364 -0.05433,2.764565 -0.005,3.142173 0.460216,3.457414 0.299893,0.203509 0.594163,0.211967 7.387795,0.211967 h 7.075499 l 0.394285,0.267681 c 0.502538,0.341164 0.502538,0.759321 0,1.100462 l -0.394285,0.267682 -7.115645,-0.0045 c -5.522985,-0.0045 -7.250561,-0.03746 -7.718386,-0.150812 z m 35.029836,-9.990832 c 0.344663,-0.217901 0.351563,-0.279381 0.351563,-3.126749 0,-2.549548 -0.03236,-2.928782 -0.265859,-3.103845 -0.254385,-0.190744 -1.004866,-0.199426 -17.404593,-0.199426 H 62.984753 l -0.306004,0.229331 c -0.279072,0.209207 -0.310389,0.451729 -0.355698,2.753628 -0.05433,2.764576 -0.005,3.142184 0.460246,3.457414 0.305385,0.207402 0.689035,0.211956 17.309931,0.211956 16.88381,0 16.999982,-0.0022 17.349178,-0.222219 z M 66.096141,58.879723 c -0.537361,-0.286953 -0.590399,-0.868642 -0.108972,-1.195437 0.30987,-0.210362 0.535474,-0.218124 6.3526,-0.218124 h 6.031316 l 0.394305,0.267692 c 0.472928,0.321074 0.504775,0.706052 0.08748,1.056167 l -0.306963,0.257451 -6.009676,0.03096 c -5.90288,0.03051 -6.017344,0.02692 -6.439951,-0.198731 z m 17.452418,0.09265 c -0.772481,-0.253537 -0.815972,-1.11943 -0.06991,-1.390522 0.407338,-0.148064 3.1545,-0.151272 3.559221,-0.0045 0.788629,0.286526 0.781439,1.083962 -0.01109,1.362592 -0.539948,0.189622 -2.930074,0.211529 -3.477082,0.03197 z m 6.814863,-0.08693 c -0.547926,-0.292594 -0.605508,-0.871165 -0.119628,-1.201078 0.279801,-0.19006 0.535484,-0.218125 1.980024,-0.218125 1.526139,0 1.686661,0.02053 2.008015,0.252438 0.431005,0.311461 0.447632,0.731435 0.04244,1.071421 -0.278332,0.233515 -0.453924,0.260884 -1.888447,0.294131 -1.423529,0.03275 -1.625684,0.01368 -2.022446,-0.198753 z M 60.043444,56.157266 c 0.06461,-1.007563 0.146022,-1.329714 0.413649,-1.63698 l 0.333318,-0.382544 -0.373483,-0.47948 c -0.366393,-0.470383 -0.373484,-0.540365 -0.373484,-3.683817 0,-3.531244 0.02587,-3.635124 1.069599,-4.307682 1.035255,-0.667039 0.009,-0.632861 19.010474,-0.632861 19.001776,0 17.967809,-0.03432 19.015996,0.632861 1.007937,0.641633 1.056857,0.841653 1.058607,4.329174 0.002,3.135263 -0.002,3.166547 -0.382135,3.618175 l -0.383709,0.455577 0.385647,0.517147 c 0.336497,0.451236 0.385647,0.667745 0.385647,1.698303 v 1.18109 h 3.36185 c 1.84899,0 3.92728,-0.05216 4.6184,-0.115871 6.94924,-0.641588 12.16822,-4.874105 11.73009,-9.512979 -0.31734,-3.359939 -3.17617,-6.208855 -7.67655,-7.649934 -1.68182,-0.538559 -2.81506,-0.717425 -5.20656,-0.821877 -3.14674,-0.137362 -3.62122,-0.332352 -5.45368,-2.240322 -4.868418,-5.06897 -13.324484,-7.30725 -21.793372,-5.76862 -3.04354,0.55294 -5.869096,1.66081 -8.313769,3.25972 -1.616436,1.0572 -2.403498,1.74697 -3.700458,3.243 -1.247078,1.43847 -2.249847,1.830919 -4.678392,1.830919 -3.623953,0 -6.988409,0.891243 -9.468639,2.508271 -1.23636,0.806084 -2.5563,2.114105 -3.05858,3.030968 -0.75134,1.371542 -1.48452,1.893815 -3.37723,2.405723 -2.54586,0.688576 -4.39551,2.425678 -4.60839,4.327962 -0.168,1.500549 0.53963,2.752092 2.19308,3.879262 0.58154,0.396463 1.44739,0.855001 1.92411,1.019016 1.55231,0.534005 2.35413,0.590774 8.04684,0.569686 l 5.220793,-0.01828 z m 37.158688,-2.960514 c 0.193068,-0.06887 0.403982,-0.179337 0.468894,-0.24536 0.06481,-0.06596 0.119168,-1.416623 0.120507,-3.001411 0.002,-2.529626 -0.03006,-2.905719 -0.263403,-3.080816 -0.254385,-0.190733 -1.004867,-0.199426 -17.404593,-0.199426 H 62.984783 l -0.306005,0.229319 c -0.27945,0.209466 -0.310468,0.453345 -0.357055,2.808188 -0.05503,2.781727 0.04983,3.337224 0.662411,3.504694 0.558462,0.152651 33.78947,0.138047 34.218028,-0.01593 z m -30.733087,-2.46026 c -0.826778,-0.206493 -1.086845,-0.929684 -0.481916,-1.340371 0.30999,-0.210374 0.535464,-0.218125 6.413957,-0.218125 h 6.092702 l 0.332949,0.287356 c 0.541525,0.467366 0.416584,0.929965 -0.321125,1.188942 -0.375161,0.131642 -1.44421,0.158125 -6.125028,0.151047 -3.118808,-0.0045 -5.778989,-0.03589 -5.911539,-0.06865 z m 17.086415,-0.05014 c -0.351942,-0.115681 -0.701069,-0.518796 -0.701069,-0.809506 0,-0.08996 0.177529,-0.283856 0.394315,-0.43109 0.36843,-0.250115 0.504636,-0.267681 2.076672,-0.267681 1.626134,0 1.693482,0.009 2.015286,0.287345 0.183101,0.158125 0.332948,0.352033 0.332948,0.43109 0,0.288354 -0.366233,0.678177 -0.748155,0.796314 -0.487139,0.150588 -2.906076,0.146011 -3.369997,-0.0079 z m 6.807962,-0.08906 c -0.547926,-0.292605 -0.605508,-0.871176 -0.119628,-1.2011 0.279801,-0.189825 0.535484,-0.218103 1.980024,-0.218103 1.526139,0 1.686661,0.02053 2.008015,0.252404 0.431005,0.311473 0.447632,0.731447 0.04244,1.071433 -0.278332,0.233548 -0.453924,0.260861 -1.888447,0.294108 -1.423529,0.03309 -1.625684,0.0138 -2.022446,-0.198742 z M 81.94122,71.42679 c -0.753956,-0.210823 -0.905281,-0.848776 -0.298934,-1.260416 l 0.394305,-0.267681 h 7.526717 c 6.12403,0 7.58285,-0.02782 7.828038,-0.149679 0.218144,-0.108132 0.332299,-0.352504 0.413299,-0.883773 0.08009,-0.524629 0.206609,-0.798367 0.443308,-0.959129 0.417084,-0.283149 1.200781,-0.291405 1.646846,-0.01828 0.303031,0.186168 0.332261,0.304293 0.283191,1.14423 -0.0467,0.801553 -0.11784,1.001417 -0.492887,1.385855 -0.241003,0.247076 -0.783147,0.586917 -1.204795,0.755149 l -0.76666,0.305942 -7.710737,0.02288 c -4.284416,0.01144 -7.866695,-0.02053 -8.061691,-0.0756 z M 66.096141,67.168115 c -0.553828,-0.295746 -0.591557,-0.866846 -0.07879,-1.191196 0.340788,-0.215612 0.535404,-0.222242 6.3526,-0.222242 h 6.001007 l 0.394315,0.267693 c 0.472928,0.321041 0.504775,0.706052 0.08738,1.056178 l -0.306963,0.257451 -6.009655,0.03096 c -5.9029,0.03051 -6.017355,0.02692 -6.439952,-0.198731 z m 17.452418,0.0977 c -0.772831,-0.264911 -0.815863,-1.124534 -0.06991,-1.395592 0.175103,-0.06371 1.013195,-0.11568 1.862383,-0.11568 1.443312,0 1.570809,0.01828 1.956196,0.279863 0.333767,0.226571 0.392837,0.345673 0.310359,0.625603 -0.174424,0.591841 -0.423795,0.67322 -2.148235,0.700802 -0.893848,0.01357 -1.710419,-0.02625 -1.910838,-0.0949 z m 6.797277,-0.101514 c -0.53034,-0.283205 -0.580293,-0.866947 -0.101862,-1.191701 0.2798,-0.189824 0.535474,-0.218124 1.980013,-0.218124 1.526139,0 1.686662,0.02053 2.008026,0.252392 0.463311,0.334838 0.445225,0.782933 -0.04494,1.115751 -0.362778,0.246291 -0.515191,0.267682 -1.906044,0.267682 -1.286105,0 -1.574883,-0.03365 -1.934994,-0.226123 z"
     id="path1160" />
</svg>
